<svg width="48" height="48" viewBox="0 0 48 48" fill="none" xmlns="http://www.w3.org/2000/svg">
<mask id="mask0_9_33" style="mask-type:luminance" maskUnits="userSpaceOnUse" x="12" y="12" width="24" height="24">
<path d="M36 12H12V36H36V12Z" fill="white"/>
</mask>
<g mask="url(#mask0_9_33)">
<path d="M24 12C17.3719 12 12 17.3719 12 24C12 30.6281 17.3719 36 24 36C30.6281 36 36 30.6281 36 24C36 17.3719 30.6281 12 24 12ZM26.6484 21.9656L26.5125 23.7609H24.6703V29.9953H22.3453V23.7609H21.1031V21.9656H22.3453V20.7609C22.3453 20.2312 22.3594 19.4109 22.7437 18.9C23.1516 18.3609 23.7094 17.9953 24.6703 17.9953C26.2359 17.9953 26.8922 18.2203 26.8922 18.2203L26.5828 20.0578C26.5828 20.0578 26.0672 19.9078 25.5844 19.9078C25.1016 19.9078 24.6703 20.0813 24.6703 20.5641V21.9656H26.6484Z" fill="#B13939"/>
</g>
</svg>
