<svg width="48" height="48" viewBox="0 0 48 48" fill="none" xmlns="http://www.w3.org/2000/svg">
<mask id="mask0_9_31" style="mask-type:luminance" maskUnits="userSpaceOnUse" x="12" y="12" width="24" height="24">
<path d="M36 12H12V36H36V12Z" fill="white"/>
</mask>
<g mask="url(#mask0_9_31)">
<path d="M24 26.1094C25.1625 26.1094 26.1141 25.1625 26.1141 23.9953C26.1141 23.5359 25.9641 23.1094 25.7156 22.7625C25.3312 22.2328 24.7078 21.8812 24.0047 21.8812C23.3016 21.8812 22.6781 22.2281 22.2937 22.7625C22.0453 23.1094 21.8953 23.5359 21.8953 23.9953C21.8906 25.1625 22.8375 26.1094 24 26.1094Z" fill="#B13939"/>
<path d="M28.6125 21.4172V19.6453V19.3828H28.35L26.5781 19.3875L26.5875 21.4219L28.6125 21.4172Z" fill="#B13939"/>
<path d="M27.2812 24C27.2812 25.8094 25.8094 27.2813 24 27.2813C22.1906 27.2813 20.7187 25.8094 20.7187 24C20.7187 23.5641 20.8078 23.1469 20.9625 22.7672H19.1719V27.6797C19.1719 28.3125 19.6875 28.8281 20.3203 28.8281H27.6797C28.3125 28.8281 28.8281 28.3125 28.8281 27.6797V22.7672H27.0375C27.1969 23.1469 27.2812 23.5641 27.2812 24Z" fill="#B13939"/>
<path d="M24 12C17.3719 12 12 17.3719 12 24C12 30.6281 17.3719 36 24 36C30.6281 36 36 30.6281 36 24C36 17.3719 30.6281 12 24 12ZM30 22.7672V27.6797C30 28.9594 28.9594 30 27.6797 30H20.3203C19.0406 30 18 28.9594 18 27.6797V22.7672V20.3156C18 19.0359 19.0406 17.9953 20.3203 17.9953H27.6797C28.9594 17.9953 30 19.0359 30 20.3156V22.7672Z" fill="#B13939"/>
</g>
</svg>
