<svg width="48" height="48" viewBox="0 0 48 48" fill="none" xmlns="http://www.w3.org/2000/svg">
<mask id="mask0_9_42" style="mask-type:luminance" maskUnits="userSpaceOnUse" x="12" y="12" width="24" height="24">
<path d="M36 12H12V36H36V12Z" fill="white"/>
</mask>
<g mask="url(#mask0_9_42)">
<path d="M24 12C17.3726 12 12 17.3726 12 24C12 30.6274 17.3726 36 24 36C30.6274 36 36 30.6274 36 24C36 17.3726 30.6274 12 24 12ZM24.2309 22.1902C24.2348 22.1904 24.2386 22.1912 24.2426 22.1914C24.2016 22.0155 24.1804 21.8321 24.1804 21.6438C24.1804 20.3169 25.2562 19.2411 26.5833 19.2411C27.2743 19.2411 27.8987 19.5329 28.3371 19.9999C28.7871 19.9113 29.2129 19.7573 29.6087 19.5535C29.6922 19.513 29.7759 19.4727 29.8581 19.4281C29.7157 19.8657 29.4482 20.2443 29.1015 20.5312C29.0076 20.6051 28.9111 20.6764 28.805 20.7348C28.8122 20.734 28.8192 20.7324 28.8264 20.7315C28.8194 20.7359 28.8135 20.7418 28.8063 20.7461C29.2002 20.699 29.5778 20.6031 29.9365 20.4676C30.0169 20.4398 30.0972 20.4118 30.1769 20.3808C29.8561 20.857 29.4525 21.2759 28.9874 21.6117C28.992 21.7147 28.9943 21.8182 28.9943 21.9225C28.9943 25.0976 26.5776 28.7588 22.1579 28.7588C20.801 28.7588 19.538 28.3612 18.4747 27.6794C18.6626 27.7016 18.854 27.7129 19.0479 27.7129C19.9449 27.7129 20.7829 27.4659 21.5033 27.0407C21.6848 26.9362 21.8623 26.8233 22.0318 26.6955C22.0272 26.6954 22.023 26.6943 22.0184 26.6942C22.0228 26.6908 22.0276 26.6878 22.032 26.6844C21.1215 26.6676 20.3358 26.1435 19.9425 25.3837C19.884 25.2671 19.8338 25.1449 19.7942 25.0167C19.9389 25.0439 20.087 25.0588 20.2395 25.0588C20.3985 25.0588 20.552 25.0383 20.7022 25.0089C20.7584 25.0011 20.815 24.9945 20.8703 24.9854C20.863 24.9839 20.8566 24.9807 20.8493 24.9792C20.8569 24.9772 20.865 24.9765 20.8725 24.9745C19.7734 24.7537 18.9451 23.7825 18.9451 22.6185C18.9451 22.6093 18.9452 22.6003 18.9453 22.5913L18.9464 22.5887C19.2052 22.7323 19.4945 22.8274 19.8009 22.8671C19.8764 22.8797 19.9519 22.8913 20.0274 22.8979C20.0223 22.8945 20.0178 22.8902 20.0127 22.8868C20.0198 22.887 20.0266 22.8885 20.0337 22.8887C19.389 22.4579 18.9648 21.7223 18.9648 20.8887C18.9648 20.5071 19.058 20.1487 19.2164 19.8283C19.2416 19.7801 19.2641 19.7309 19.2931 19.6842C20.3577 20.9883 21.8954 21.8859 23.6431 22.1287C23.8381 22.1571 24.0337 22.1823 24.2316 22.1938L24.2309 22.1902Z" fill="#B13939"/>
</g>
</svg>
